<?xml version="1.0" standalone="no"?>
<!DOCTYPE svg PUBLIC "-//W3C//DTD SVG 20010904//EN"
 "http://www.w3.org/TR/2001/REC-SVG-20010904/DTD/svg10.dtd">
<svg version="1.0" xmlns="http://www.w3.org/2000/svg"
 width="633.000000pt" height="633.000000pt" viewBox="0 0 633.000000 633.000000"
 preserveAspectRatio="xMidYMid meet">

<g transform="translate(0.000000,633.000000) scale(0.100000,-0.100000)"
fill="#000000" stroke="none">
<path d="M2919 6319 c-535 -41 -1058 -223 -1509 -524 -200 -133 -491 -379
-463 -391 28 -12 67 -50 112 -110 43 -56 50 -73 62 -144 12 -76 14 -80 38 -80
14 0 66 -12 114 -27 83 -26 93 -33 168 -105 56 -55 88 -78 105 -78 14 0 36
-11 48 -24 13 -12 31 -26 41 -29 15 -6 15 -9 -1 -37 -25 -41 -43 -45 -73 -16
-31 29 -53 33 -146 22 -198 -22 -426 -77 -560 -135 -11 -5 -36 -16 -55 -24
-61 -26 -204 -97 -240 -119 -72 -43 -89 -54 -136 -87 -115 -80 -134 -100 -134
-139 -1 -20 -7 -48 -15 -62 -8 -14 -14 -30 -15 -36 0 -15 44 -34 79 -34 29 0
74 -47 99 -104 l13 -29 23 22 c38 36 50 27 96 -71 68 -146 284 -588 492 -1008
363 -731 327 -647 303 -700 -10 -22 -21 -40 -24 -40 -7 0 -23 30 -66 120 -14
30 -32 66 -40 80 -8 14 -35 70 -60 125 -26 55 -51 107 -56 115 -5 8 -16 31
-25 50 -38 86 -99 207 -115 225 -10 11 -26 43 -37 70 -21 52 -147 320 -184
390 -12 22 -34 66 -49 97 -16 31 -33 59 -39 63 -5 3 -10 13 -10 22 0 8 -36 89
-80 179 -44 91 -80 169 -80 174 0 6 -19 10 -43 10 -53 0 -69 12 -98 73 -12 27
-27 50 -33 52 -143 38 -170 75 -130 175 9 23 14 43 11 46 -9 9 -92 -260 -125
-406 -158 -695 -79 -1424 223 -2056 183 -384 460 -754 761 -1015 114 -99 347
-279 390 -301 16 -8 70 -39 119 -68 878 -512 1951 -568 2890 -148 61 27 137
56 170 64 99 25 187 62 281 117 186 111 315 223 329 288 6 25 32 57 105 126
493 466 836 1122 940 1798 100 649 -5 1331 -296 1908 l-39 77 -33 -42 c-17
-23 -32 -45 -32 -48 0 -4 16 -27 35 -51 55 -69 94 -220 77 -295 -7 -33 -6 -44
9 -63 12 -14 19 -39 19 -65 0 -23 5 -47 10 -52 6 -6 13 -33 16 -60 8 -64 -14
-94 -82 -112 -27 -8 -54 -15 -60 -17 -6 -2 -21 -25 -33 -52 -29 -61 -45 -73
-98 -73 -24 0 -43 -5 -43 -11 0 -6 -31 -74 -69 -152 -38 -78 -90 -185 -115
-237 -25 -52 -56 -115 -69 -140 -13 -25 -41 -81 -62 -125 -21 -44 -53 -109
-71 -145 -18 -36 -42 -89 -54 -119 -11 -30 -32 -68 -46 -84 -14 -16 -28 -43
-31 -58 -3 -16 -11 -33 -18 -39 -7 -6 -23 -36 -36 -68 -12 -31 -31 -69 -41
-84 -10 -14 -18 -30 -18 -35 0 -15 -83 -173 -91 -173 -4 0 -20 11 -35 23 l-27
24 205 414 c205 412 439 889 513 1047 23 47 46 82 54 82 8 0 25 -10 37 -21
l23 -22 13 29 c7 16 25 45 40 65 23 30 35 37 74 42 63 7 72 18 51 62 -9 20
-17 51 -17 70 0 28 -8 40 -42 68 -133 106 -284 195 -468 274 -19 8 -44 19 -55
24 -150 65 -399 122 -587 135 -54 4 -98 10 -98 14 0 3 -9 16 -21 28 -23 26
-18 42 15 42 15 0 51 27 103 78 76 72 86 79 169 105 49 15 101 27 115 27 24 0
26 4 39 81 13 84 34 122 114 208 37 39 153 99 211 108 75 11 75 15 -6 98 -651
673 -1584 1026 -2520 954z m421 -894 c442 -51 854 -269 1148 -605 85 -97 205
-273 253 -372 31 -63 34 -66 51 -52 9 9 25 14 34 10 13 -5 15 -14 10 -47 -3
-22 -11 -48 -17 -58 -9 -13 -8 -26 3 -52 9 -19 21 -53 28 -77 l13 -43 20 46
c18 42 23 46 51 43 l31 -3 -3 -85 c-1 -47 -4 -109 -6 -137 -3 -29 0 -53 5 -53
5 0 9 5 9 11 0 18 51 119 60 119 10 0 -13 -72 -55 -170 -27 -64 -28 -68 -21
-205 6 -142 28 -428 46 -585 5 -47 12 -139 16 -205 11 -182 12 -184 63 -74 24
52 69 147 100 211 l57 117 -7 83 c-4 46 -14 164 -23 263 -22 257 -38 571 -30
611 3 19 11 34 17 34 16 0 180 -72 209 -92 25 -17 26 -23 33 -135 3 -65 10
-151 16 -191 11 -86 7 -100 -91 -315 -34 -76 -60 -140 -58 -142 2 -3 67 121
143 275 77 154 140 278 142 276 5 -4 -32 -106 -56 -156 -11 -24 -19 -45 -16
-48 2 -2 35 59 72 137 60 125 83 161 83 132 0 -5 -43 -98 -96 -208 -92 -189
-155 -319 -285 -589 -31 -66 -108 -224 -169 -350 -61 -126 -130 -268 -152
-316 -23 -49 -46 -88 -51 -88 -22 0 -109 65 -118 87 -5 13 -9 57 -9 97 0 132
-35 512 -50 536 -12 20 -30 2 -30 -31 0 -19 -5 -29 -15 -29 -21 0 -19 13 16
83 119 234 149 588 78 916 -46 213 -159 463 -286 636 -88 119 -275 304 -393
387 -245 174 -561 286 -860 307 -674 47 -1313 -311 -1625 -911 -147 -282 -214
-611 -186 -910 40 -435 219 -813 518 -1094 l75 -71 -12 -56 c-7 -31 -17 -57
-22 -57 -15 0 -260 253 -306 316 -106 146 -188 295 -251 456 -33 85 -73 222
-72 253 0 10 -4 24 -8 30 -27 32 -41 443 -20 580 5 33 9 67 10 75 0 8 4 24 8
35 5 11 20 70 35 131 15 61 35 130 46 152 11 23 20 46 20 52 0 28 98 215 165
315 235 350 559 596 951 724 257 83 497 108 764 76z m215 -280 c100 -18 205
-63 276 -117 26 -20 62 -39 80 -43 56 -12 124 -52 173 -99 25 -25 60 -53 78
-62 57 -29 106 -73 132 -119 24 -44 76 -195 76 -222 0 -8 22 -51 49 -96 27
-45 60 -103 72 -129 21 -45 39 -62 39 -38 0 6 26 10 58 10 l57 0 27 -73 c42
-108 76 -264 88 -400 14 -151 0 -325 -38 -476 l-27 -106 -56 -3 -55 -3 17 85
c22 110 35 256 22 256 -6 0 -13 -30 -17 -67 -14 -155 -95 -395 -184 -547 -51
-88 -146 -220 -180 -250 -12 -11 -22 -23 -22 -28 0 -14 43 -68 54 -68 14 0 56
-41 56 -54 -1 -12 -101 -76 -118 -76 -5 0 -12 7 -16 15 -6 18 22 35 58 35 30
0 35 16 7 25 -37 12 -99 83 -111 127 -7 24 -22 74 -33 112 -17 54 -19 70 -9
74 7 2 25 15 41 28 26 22 28 27 20 66 -7 39 -5 46 20 73 34 36 71 108 71 136
0 11 -4 28 -9 38 -8 13 -4 19 20 30 34 15 74 79 83 134 8 43 -10 73 -91 155
-24 24 -46 56 -49 70 -13 60 -39 115 -60 128 -37 25 -48 64 -28 103 21 43 30
117 16 134 -20 24 -17 72 6 104 33 47 26 48 -14 3 -44 -49 -67 -54 -28 -6 16
19 37 46 47 60 10 15 23 23 29 20 6 -4 8 -2 4 4 -3 6 -2 13 3 16 14 9 23 74
22 160 -1 90 -33 196 -75 251 -30 39 -24 49 22 30 74 -32 107 -94 123 -234 11
-99 14 -109 26 -97 13 12 9 269 -5 326 -29 119 -95 210 -180 246 -18 7 -53 34
-78 59 -45 46 -112 84 -149 85 -11 0 -45 18 -75 41 -102 77 -161 100 -320 125
-314 49 -620 16 -825 -89 -51 -26 -199 -120 -215 -137 -3 -3 -36 -31 -75 -62
-120 -97 -206 -200 -263 -313 -60 -121 -73 -177 -74 -308 0 -96 8 -133 43
-182 28 -39 29 -44 28 -150 -3 -245 16 -285 321 -696 43 -58 92 -131 110 -162
30 -54 31 -60 30 -169 0 -62 -3 -126 -5 -143 -2 -16 -7 -55 -10 -85 -6 -61
-15 -111 -22 -123 -2 -4 -13 -2 -25 4 -18 9 -19 17 -14 57 3 26 10 111 15 189
12 172 5 209 -63 308 -26 39 -57 85 -69 103 -21 32 -66 91 -108 142 -38 46
-150 224 -155 247 -4 13 -10 26 -15 29 -5 3 -9 14 -9 24 0 23 -20 37 -29 21
-5 -8 -51 -11 -152 -9 l-144 3 0 40 0 40 147 3 147 3 -2 133 c-2 110 -5 137
-19 152 -35 39 -52 114 -51 230 1 103 -1 111 -21 120 -41 18 -27 74 18 74 18
0 27 12 46 58 12 31 29 64 36 73 8 8 14 20 14 26 0 5 14 29 30 51 17 23 30 45
30 49 0 5 53 60 117 123 120 117 117 121 -17 21 -141 -106 -283 -266 -381
-432 -58 -98 -124 -267 -156 -399 -26 -108 -28 -129 -28 -330 1 -199 3 -223
28 -322 71 -286 198 -511 399 -711 65 -64 84 -89 73 -93 -18 -7 -78 46 -173
150 -188 209 -331 527 -358 799 -4 37 -11 70 -17 74 -13 8 0 -152 22 -267 l18
-90 -53 0 -53 0 -22 72 c-34 117 -49 233 -50 388 0 203 36 403 101 554 l19 46
55 0 c34 0 57 -5 60 -12 4 -9 8 -10 11 -2 32 66 146 252 190 309 114 149 276
295 430 387 54 33 164 87 300 147 28 13 58 27 67 32 10 5 25 9 33 9 8 0 23 5
33 11 9 5 73 21 142 34 113 22 145 24 325 21 127 -3 233 -10 290 -21z m15
-142 c-8 -4 -35 -12 -60 -19 -43 -13 -42 -13 45 -9 l90 5 -80 -20 c-44 -12
-84 -26 -90 -32 -7 -7 -2 -9 20 -3 72 17 184 34 225 34 34 -1 20 -5 -55 -18
-176 -31 -276 -73 -356 -148 -74 -69 -62 -15 14 65 23 23 37 42 31 42 -20 0
-149 -47 -199 -73 -46 -23 -100 -70 -141 -122 -15 -19 -15 -19 -9 9 3 17 14
46 23 65 9 20 18 41 20 46 3 6 -17 -10 -43 -35 -50 -49 -88 -107 -100 -155
l-7 -30 -10 25 c-14 36 -5 159 15 200 21 43 72 105 62 75 -19 -53 -15 -57 14
-19 28 38 125 114 144 114 5 0 -12 -26 -37 -57 -25 -32 -44 -58 -43 -60 2 -1
34 13 72 32 67 32 186 75 209 75 6 0 -24 -20 -66 -45 -103 -60 -123 -88 -30
-42 67 34 186 75 262 91 70 15 107 19 80 9z m288 -88 c-2 -3 -31 -14 -64 -25
l-59 -19 65 4 65 5 -70 -25 c-38 -14 -56 -22 -40 -19 75 13 225 16 225 5 0 -7
-20 -11 -52 -11 -111 -1 -289 -52 -370 -106 -28 -19 -52 -33 -54 -32 -4 5 20
32 54 61 45 36 25 34 -46 -5 -81 -45 -142 -86 -179 -121 -44 -41 -42 -26 3 29
49 59 143 129 229 171 62 29 66 33 32 28 -21 -4 -46 -9 -55 -11 -13 -4 -12 -2
3 11 37 30 167 59 284 64 19 0 32 -1 29 -4z m-2330 -164 c4 -10 -1 -12 -19 -8
-13 4 -42 7 -64 8 l-40 2 40 7 c54 10 78 8 83 -9z m2527 8 c106 -19 175 -72
216 -164 18 -42 45 -182 36 -191 -3 -3 -16 19 -29 48 -29 62 -90 125 -130 133
-15 4 -25 11 -22 17 6 9 31 6 68 -8 27 -10 19 22 -14 60 -41 46 -85 59 -181
54 -62 -4 -91 -11 -144 -37 -89 -44 -200 -134 -270 -220 -32 -39 -61 -69 -63
-66 -12 11 71 128 139 197 51 51 68 73 50 65 -49 -22 -166 -90 -212 -123 -68
-50 -69 -41 -3 22 70 66 172 135 246 168 46 20 78 29 183 50 38 7 71 6 130 -5z
m-2672 -156 c3 -5 8 -34 12 -65 8 -67 -3 -75 -33 -25 -30 49 -36 85 -15 90 29
7 32 7 36 0z m127 -10 c-6 -10 -21 -36 -34 -58 -32 -54 -52 -56 -65 -8 -13 44
-14 67 -4 76 3 4 30 7 60 7 49 0 53 -2 43 -17z m3319 -39 c2 -2 -21 -4 -52 -4
-33 0 -57 4 -57 10 0 10 98 4 109 -6z m-732 -46 c64 -65 87 -126 88 -228 0
-73 -4 -93 -28 -142 -28 -58 -76 -99 -113 -97 -15 0 -14 2 6 10 38 15 78 58
91 96 6 19 11 71 12 116 2 176 -81 235 -228 160 -48 -25 -49 -25 -30 -3 11 12
43 35 70 51 43 25 46 29 24 29 -42 0 -123 -28 -170 -59 -45 -31 -62 -33 -39
-6 20 24 -6 19 -57 -11 -54 -31 -66 -26 -21 8 77 59 233 116 318 117 29 1 44
-7 77 -41z m439 25 c39 -64 94 -175 94 -193 0 -11 -9 -28 -20 -37 -11 -10 -20
-23 -20 -30 0 -15 -56 -18 -65 -3 -3 5 1 30 10 56 15 45 15 48 -10 99 -25 54
-30 81 -19 109 8 21 17 20 30 -1z m-2183 -50 c-12 -43 -5 -139 15 -198 11 -30
17 -57 14 -59 -2 -3 -15 0 -29 5 -30 11 -42 4 -25 -13 21 -21 13 -26 -28 -21
-43 6 -49 -2 -29 -39 11 -20 10 -21 -31 -14 l-42 7 7 -30 c6 -30 6 -30 -29
-24 -33 5 -34 4 -29 -18 6 -24 6 -24 -15 -5 -22 19 -48 83 -38 93 3 4 14 -1
24 -10 28 -26 34 -20 17 13 -19 38 -35 119 -24 125 4 3 11 -4 14 -16 8 -25 73
-99 87 -99 5 0 -2 19 -16 43 -26 45 -51 128 -44 149 3 7 15 -9 28 -35 23 -46
80 -110 80 -90 0 6 -7 30 -15 53 -16 46 -20 166 -6 188 5 9 11 -5 15 -40 8
-55 36 -131 54 -142 6 -4 8 17 4 59 -4 50 -1 75 13 105 21 46 39 54 28 13z
m-943 -68 c0 -8 -2 -15 -4 -15 -2 0 -6 7 -10 15 -3 8 -1 15 4 15 6 0 10 -7 10
-15z m-53 -38 l21 -44 -20 -44 c-11 -24 -24 -57 -28 -74 -5 -16 -17 -59 -27
-94 l-20 -65 -30 75 c-17 40 -34 88 -38 104 l-7 30 20 -25 c11 -13 26 -41 33
-63 7 -21 16 -40 20 -43 9 -5 6 88 -6 199 -8 76 -4 87 34 87 22 0 31 -8 48
-43z m1940 11 c-3 -8 -6 -5 -6 6 -1 11 2 17 5 13 3 -3 4 -12 1 -19z m1605 -19
c-5 -30 -40 -89 -54 -89 -7 0 -8 19 -4 56 8 70 11 75 39 65 16 -6 21 -15 19
-32z m-1812 -10 c10 -37 15 -67 19 -109 1 -12 3 -13 10 -1 5 8 5 27 0 45 -5
17 -9 44 -8 61 1 25 4 21 19 -25 l18 -55 -2 62 c-1 34 2 59 6 57 5 -3 8 -11 7
-17 -1 -7 3 -25 10 -41 6 -15 12 -39 13 -51 1 -13 6 -21 10 -19 5 3 6 9 3 14
-3 4 -7 30 -10 57 -6 63 9 40 31 -49 9 -38 18 -68 21 -68 3 0 2 12 -2 28 -4
15 -9 56 -11 92 l-3 65 14 -45 c8 -25 17 -62 19 -84 6 -45 11 -53 19 -31 4 8
2 15 -4 15 -6 0 -8 4 -5 8 3 5 1 33 -3 63 -5 30 -8 56 -6 57 6 6 46 -132 47
-160 1 -15 5 -25 10 -22 5 3 6 14 3 25 -4 10 -8 31 -10 47 -2 15 -4 27 -5 27
-1 0 -3 15 -6 33 -4 33 9 44 20 16 3 -9 9 -36 11 -60 3 -25 10 -54 15 -67 10
-24 10 -25 -5 103 -5 46 -4 52 6 35 7 -11 14 -32 16 -46 1 -14 7 -37 13 -50 8
-19 9 -14 5 27 -2 28 -7 58 -11 67 -3 10 -1 17 5 17 10 0 31 -62 34 -101 1
-11 5 -19 10 -19 5 0 5 14 2 31 -10 45 -12 88 -4 83 4 -2 10 -20 13 -39 9 -48
25 -35 21 18 l-3 42 13 -30 c8 -16 14 -38 15 -47 0 -32 20 -29 65 8 41 33 48
36 69 24 20 -10 40 -10 113 4 91 17 178 20 231 10 22 -5 34 -15 42 -38 7 -17
15 -40 20 -51 19 -52 40 -122 40 -136 0 -22 -89 -60 -120 -52 -16 4 -21 2 -18
-7 9 -28 54 -51 101 -52 51 -1 61 -16 32 -54 -21 -28 -19 -32 16 -30 27 1 32
-3 45 -39 18 -53 18 -64 -6 -118 -25 -57 -19 -90 25 -137 20 -21 42 -61 54
-99 16 -49 34 -78 74 -120 70 -73 79 -90 67 -131 -12 -41 -56 -100 -76 -100
-8 0 -37 -12 -65 -26 -65 -35 -120 -39 -154 -13 -14 11 -25 27 -25 34 0 8 -4
16 -9 19 -4 3 -6 -6 -3 -20 2 -14 11 -28 18 -31 33 -12 -1 -58 -78 -105 -33
-21 -88 -24 -106 -6 -7 7 -12 8 -12 2 0 -17 61 -84 77 -84 11 0 13 -3 5 -12
-8 -10 10 -13 86 -15 53 -1 102 3 109 8 16 14 50 -4 58 -31 17 -54 -32 -90
-98 -73 -37 10 -40 10 -23 -3 11 -8 25 -14 32 -14 17 0 15 -57 -3 -72 -11 -9
-20 -5 -41 15 -16 15 -31 27 -34 27 -3 0 -1 -20 4 -44 5 -25 6 -58 1 -77 -29
-109 -134 -19 -149 129 -6 57 -9 62 -27 56 -18 -6 -19 -3 -13 34 l6 41 -37 6
c-64 11 -186 56 -229 85 -101 70 -213 224 -259 357 -15 42 -30 69 -40 71 -9 2
-23 18 -30 35 -8 18 -14 24 -15 15 0 -35 -20 -27 -39 17 -11 25 -23 45 -27 45
-3 0 -4 -7 -1 -15 4 -8 2 -17 -3 -20 -5 -3 -21 17 -34 44 -36 71 -49 72 -22 2
29 -72 46 -169 47 -258 1 -93 -8 -135 -47 -223 -18 -41 -40 -106 -49 -143 -21
-96 -61 -173 -122 -236 -29 -30 -53 -56 -53 -57 0 -6 48 11 65 23 29 20 59 17
50 -4 -4 -10 -9 -25 -12 -34 -3 -12 -22 -18 -70 -22 -36 -4 -70 -4 -74 -1 -5
3 -9 21 -9 39 0 26 6 39 26 52 38 24 104 118 125 177 25 66 24 76 -4 76 -53 0
-109 47 -150 125 -12 24 -27 34 -68 45 -71 20 -119 60 -139 118 -11 33 -22 48
-37 50 -20 3 -20 1 -8 -52 7 -30 26 -74 42 -98 95 -142 103 -163 105 -290 1
-62 -1 -133 -5 -158 -8 -62 -26 -152 -29 -154 -2 0 -18 -12 -37 -25 -20 -14
-32 -18 -29 -10 3 8 11 41 18 74 7 33 14 67 17 75 9 27 15 114 14 203 -1 69
-6 97 -23 130 -24 49 -114 183 -140 211 -10 11 -18 23 -18 27 0 3 -13 22 -30
40 -16 19 -30 39 -30 45 0 7 -6 14 -14 17 -7 3 -17 18 -20 33 -4 15 -18 36
-32 46 -13 11 -24 28 -24 39 0 10 -5 19 -11 19 -6 0 -9 7 -5 15 3 8 0 14 -6
12 -12 -2 -25 37 -33 98 -3 22 -7 47 -10 55 -3 8 -7 29 -9 45 -8 62 -26 164
-32 178 -3 8 0 18 7 23 7 4 10 3 6 -3 -3 -5 0 -31 8 -57 8 -26 14 -51 14 -54
-1 -4 0 -9 1 -12 1 -3 3 -14 4 -25 7 -55 19 -87 26 -74 5 7 6 18 2 23 -3 6 -7
17 -8 26 -6 50 -15 107 -19 120 -12 37 -13 90 -3 96 6 4 8 3 4 -4 -3 -6 -1
-14 5 -17 5 -4 8 -13 5 -20 -2 -7 -2 -16 2 -19 6 -7 9 -21 15 -69 2 -15 6 -30
10 -33 3 -3 3 -13 0 -22 -4 -10 -2 -13 6 -8 6 4 9 16 6 26 -3 10 -8 35 -11 56
-2 22 -7 47 -10 57 -9 30 -12 89 -3 80 10 -11 39 -125 33 -134 -2 -4 1 -11 7
-15 8 -4 9 5 5 32 -3 22 -8 62 -11 89 -3 28 -8 59 -11 70 -4 17 -4 18 6 3 5
-9 12 -29 14 -45 2 -15 8 -41 15 -56 6 -16 9 -33 5 -38 -3 -5 0 -9 6 -9 8 0 9
11 4 33 -10 47 -12 87 -3 87 12 0 17 -13 23 -56 3 -21 10 -52 15 -69 9 -27 10
-26 6 15 -2 25 -6 52 -9 60 -11 30 -15 100 -5 106 5 3 9 2 8 -3 -1 -4 3 -21 9
-36 7 -16 10 -32 8 -36 -3 -4 1 -27 8 -52 7 -24 11 -50 8 -58 -3 -9 0 -11 7
-7 7 4 9 16 6 26 -3 10 -8 35 -11 56 -2 22 -7 46 -10 55 -2 9 -7 34 -9 54 -5
33 -3 36 10 25 9 -7 14 -15 11 -17 -2 -2 4 -34 13 -71 10 -37 16 -74 13 -82
-3 -11 -1 -12 7 -5 7 8 8 21 1 45 -17 61 -31 182 -19 175 7 -5 30 -90 35 -130
1 -11 3 -20 4 -20 1 0 3 -13 5 -29 2 -15 6 -31 10 -34 6 -7 -4 88 -11 99 -7
12 -17 139 -10 139 9 0 29 -84 35 -148 0 -7 5 -11 10 -8 6 4 6 20 0 40 -13 48
-19 137 -8 130 5 -3 7 -9 4 -14 -3 -5 0 -12 6 -15 5 -4 8 -13 5 -20 -2 -7 -2
-16 2 -20 4 -3 7 -12 8 -18 0 -7 2 -21 3 -32 1 -16 3 -17 10 -6 5 8 5 27 0 45
-5 17 -9 44 -8 61 l0 30 11 -25 c6 -14 12 -29 13 -35 0 -5 5 -28 10 -50 5 -22
8 -46 7 -52 -2 -7 2 -13 7 -13 10 0 5 95 -6 113 -2 4 -6 29 -9 55 -5 60 13 24
21 -42 2 -24 9 -56 15 -71 5 -14 9 -29 9 -33 -1 -4 0 -9 1 -12 1 -3 3 -14 4
-25 8 -60 18 -87 29 -76 8 8 8 14 2 19 -6 4 -11 16 -12 27 -2 11 -5 36 -7 55
-2 19 -9 67 -16 105 -6 39 -13 86 -15 105 -4 30 -3 32 5 12 6 -13 8 -28 5 -32
-3 -5 -1 -11 5 -15 6 -4 8 -10 5 -15 -2 -4 2 -29 10 -55 8 -27 13 -51 13 -54
-1 -3 2 -26 7 -51 5 -25 8 -51 6 -57 -1 -7 3 -13 10 -13 6 0 9 -7 5 -15 -3 -8
-1 -15 5 -15 6 0 8 12 5 28 -8 44 -18 105 -22 136 -2 15 -6 35 -8 45 -3 9 -8
36 -11 60 -3 24 -8 49 -12 55 -4 7 -3 8 4 1 12 -12 31 -78 38 -131 3 -21 9
-52 13 -69 5 -16 7 -36 5 -42 -3 -7 0 -13 6 -13 6 0 8 -7 5 -15 -4 -8 -1 -15
5 -15 6 0 9 13 7 33 -3 17 -5 32 -6 32 -2 0 -5 20 -15 89 -3 28 -8 53 -10 56
-2 3 -6 28 -10 54 -3 27 -8 53 -12 59 -3 5 -1 7 4 4 10 -7 21 -45 29 -102 2
-17 10 -51 18 -75 l14 -45 -4 45 c-2 25 -8 70 -13 100 -5 30 -6 59 -3 64 7 12
22 -29 28 -77 3 -20 9 -47 14 -60 10 -24 8 5 -8 116 -6 40 -5 60 2 64 6 3 8 3
4 -2 -4 -4 -3 -14 3 -21 5 -7 12 -31 15 -53 3 -23 9 -51 14 -64 7 -16 8 -10 4
23 -3 25 -7 65 -9 90 l-3 45 19 -60 c11 -33 20 -70 21 -82 2 -13 6 -23 11 -23
5 0 6 9 2 20 -3 11 -8 40 -11 66 -2 25 -6 49 -8 53 -3 4 -1 13 5 21 7 12 9 11
10 -5 1 -27 6 -53 14 -73 4 -9 9 -30 10 -45 2 -15 6 -31 9 -34 6 -6 2 42 -9
127 -4 35 -4 35 10 10 7 -14 17 -41 20 -60 3 -20 11 -42 16 -50 9 -12 10 -11
5 4 -4 11 -9 49 -11 85 l-5 66 15 -40 c15 -38 23 -76 24 -120 1 -15 3 -17 10
-6 5 7 5 26 1 42 -5 15 -11 59 -14 96 l-6 68 15 -38 c8 -21 17 -58 20 -82 2
-23 9 -53 14 -66 8 -19 9 -15 5 21 -2 25 -6 52 -9 60 -11 39 -13 100 -3 106 7
4 8 2 4 -4 -4 -7 -4 -18 1 -24 4 -7 9 -22 10 -34 2 -11 9 -40 17 -65 l14 -44
-4 40 c-1 22 -6 61 -10 88 -4 26 -4 47 -1 47 8 0 39 -110 39 -138 0 -13 4 -20
9 -15 5 5 2 31 -5 58 -7 28 -10 59 -6 70 7 18 9 17 19 -9 6 -16 10 -31 7 -33
-2 -2 2 -27 10 -55 7 -28 11 -55 8 -60 -3 -4 0 -8 6 -8 8 0 9 10 5 29 -13 60
-26 171 -20 171 7 0 38 -112 38 -137 0 -12 4 -20 9 -17 5 3 6 13 3 23 -9 22
-19 141 -11 141 3 0 10 -18 16 -41z m991 -18 c16 -16 29 -40 30 -53 2 -44 -3
-83 -13 -102 -9 -17 -16 -6 -44 74 -18 52 -30 98 -28 102 9 15 25 8 55 -21z
m-3712 -20 c-36 -41 -49 -49 -49 -28 0 13 59 66 74 67 4 0 -7 -18 -25 -39z
m695 -6 c11 -55 -12 -438 -52 -873 l-8 -83 51 -107 c29 -59 74 -154 101 -211
58 -124 56 -127 74 129 11 167 20 228 20 144 1 -21 5 -59 11 -84 5 -25 14 -65
19 -90 5 -25 17 -70 28 -100 10 -30 27 -77 36 -105 20 -56 59 -145 83 -189 12
-22 17 -63 19 -168 2 -101 7 -146 18 -169 15 -31 21 -59 12 -59 -2 0 -11 -3
-20 -6 -10 -4 -22 5 -37 28 -11 18 -18 24 -14 13 17 -47 15 -57 -5 -17 -11 23
-18 48 -14 54 4 6 3 8 -3 5 -6 -4 -48 73 -98 176 -164 337 -282 581 -325 672
-44 93 -117 243 -289 599 -56 114 -101 212 -101 217 0 30 24 -8 85 -136 38
-79 71 -142 73 -140 3 2 -6 26 -18 52 -26 54 -62 155 -57 159 2 2 63 -119 137
-267 74 -149 138 -273 142 -276 12 -7 0 23 -87 212 -58 124 -65 153 -55 231 5
38 11 123 14 189 6 113 7 121 31 140 27 20 192 94 211 95 7 0 15 -16 18 -35z
m1653 3 c-3 -8 -6 -5 -6 6 -1 11 2 17 5 13 3 -3 4 -12 1 -19z m-2104 -65 c22
-36 25 -48 15 -54 -17 -11 -28 -11 -28 -1 0 5 -13 22 -30 38 -41 40 -39 54 10
63 3 0 18 -20 33 -46z m572 -6 c15 -23 65 -154 65 -171 0 -21 -40 30 -64 80
-23 48 -35 114 -21 114 2 0 11 -10 20 -23z m-618 -29 c17 -23 29 -46 26 -52
-4 -10 -108 -96 -115 -96 -2 0 -21 21 -42 46 l-39 46 54 49 c30 26 61 48 69
48 8 0 29 -18 47 -41z m227 -10 c-3 -4 -12 -8 -20 -8 -8 0 -13 4 -10 8 3 5 12
9 20 9 8 0 13 -4 10 -9z m-88 -47 c-3 -5 -16 -11 -28 -14 -22 -6 -22 -5 -4 8
22 17 40 20 32 6z m1224 -6 c26 -32 -13 -81 -47 -59 -35 22 -23 74 17 74 10 0
23 -7 30 -15z m3957 -21 c29 -22 45 -55 26 -53 -11 1 -77 79 -68 79 5 0 23
-11 42 -26z m-5173 -26 c-3 -4 -9 -8 -15 -8 -5 0 -9 4 -9 8 0 5 7 9 15 9 8 0
12 -4 9 -9z m16 -60 c-1 -56 -16 -50 -20 7 -3 40 -2 45 10 45 6 0 10 -24 10
-52z m60 42 c0 -5 -4 -10 -10 -10 -5 0 -10 5 -10 10 0 6 5 10 10 10 6 0 10 -4
10 -10z m4901 0 c5 0 9 -7 9 -15 0 -8 -4 -15 -9 -15 -5 0 -19 -16 -32 -35 -26
-38 -28 -39 -47 -26 -17 11 37 103 56 96 8 -3 18 -5 23 -5z m-3334 -22 c-3 -8
-6 -5 -6 6 -1 11 2 17 5 13 3 -3 4 -12 1 -19z m-27 -38 c5 -19 6 -29 1 -24
-10 10 -26 72 -17 63 4 -4 11 -21 16 -39z m2721 -77 c-34 -69 -61 -97 -61 -66
0 11 3 23 7 26 3 4 14 30 24 58 10 29 26 63 36 78 l18 26 3 -32 c2 -20 -8 -53
-27 -90z m738 58 l54 -49 -39 -46 c-21 -25 -40 -46 -42 -46 -8 0 -111 86 -116
97 -6 13 60 93 77 93 7 -1 36 -23 66 -49z m-308 -7 c12 -14 11 -16 -5 -13 -11
2 -21 10 -24 17 -5 17 13 15 29 -4z m-4712 -54 c-1 -10 -2 -11 -6 -2 -2 6 -9
10 -14 6 -11 -6 -12 7 -2 32 6 16 7 16 14 -2 4 -10 8 -26 8 -34z m4721 20 c0
-5 -7 -10 -16 -10 -8 0 -12 5 -9 10 3 6 10 10 16 10 5 0 9 -4 9 -10z m73 -14
c25 -19 21 -26 -8 -13 -14 7 -25 15 -25 20 0 11 13 8 33 -7z m-86 -12 c-3 -3
-12 -4 -19 -1 -8 3 -5 6 6 6 11 1 17 -2 13 -5z m50 -36 c-3 -7 -5 -2 -5 12 0
14 2 19 5 13 2 -7 2 -19 0 -25z m32 -8 c0 -10 -3 -8 -9 5 -12 27 -12 43 0 25
5 -8 9 -22 9 -30z m-4792 8 c-3 -8 -6 -5 -6 6 -1 11 2 17 5 13 3 -3 4 -12 1
-19z m1103 7 c26 -32 -13 -81 -47 -59 -35 22 -23 74 17 74 10 0 23 -7 30 -15z
m3617 -67 c-3 -8 -6 -5 -6 6 -1 11 2 17 5 13 3 -3 4 -12 1 -19z m46 7 c-3 -9
-8 -14 -10 -11 -3 3 -2 9 2 15 9 16 15 13 8 -4z m-43 -120 c-11 -22 -20 -32
-20 -21 0 25 34 94 38 76 1 -8 -7 -33 -18 -55z m-3293 20 c-4 -8 -2 -17 4 -20
5 -4 7 -10 4 -15 -2 -4 2 -29 10 -56 8 -26 12 -50 9 -53 -10 -10 -23 16 -28
54 -3 22 -8 55 -12 73 -4 22 -3 32 6 32 7 0 10 -7 7 -15z m-347 -310 c26 -32
-13 -81 -47 -59 -35 22 -23 74 17 74 10 0 23 -7 30 -15z m50 -240 c26 -32 -13
-81 -47 -59 -35 22 -23 74 17 74 10 0 23 -7 30 -15z m2202 -197 c3 -9 12 -9
38 0 18 7 36 9 39 6 22 -22 -144 -69 -195 -55 l-29 8 40 12 c22 6 51 18 65 26
31 18 37 18 42 3z m-1005 -94 l-5 -63 25 10 c42 16 44 10 14 -48 -15 -32 -39
-86 -51 -120 -19 -53 -26 -63 -46 -63 -31 0 -31 18 2 95 41 98 40 92 18 74
-20 -17 -64 -34 -64 -25 0 3 11 17 25 32 36 38 65 105 65 148 0 25 4 35 11 30
8 -4 10 -29 6 -70z m1613 58 c0 -10 -9 -28 -21 -40 -11 -12 -18 -26 -15 -30 3
-5 -6 -27 -20 -51 -13 -24 -24 -49 -24 -57 0 -8 -4 -14 -10 -14 -5 0 -10 -5
-10 -11 0 -5 4 -8 9 -5 5 3 11 -1 14 -8 4 -10 0 -13 -14 -11 -12 3 -22 -3 -26
-13 -3 -9 -12 -24 -20 -34 -11 -12 -13 -29 -8 -62 9 -56 28 -50 22 7 -2 23 -2
32 0 19 6 -32 24 -23 46 21 17 36 27 44 40 31 7 -7 -10 -45 -23 -54 -5 -3 -20
-27 -34 -54 -14 -27 -26 -44 -26 -37 0 6 -5 11 -11 11 -8 0 -9 -13 -5 -39 l6
-39 -93 1 -93 1 91 121 c108 142 175 254 175 289 0 14 5 26 10 26 6 0 16 11
22 25 13 30 18 31 18 7z m29 -14 c-1 -31 -1 -31 -8 -8 -5 14 -6 28 -4 33 9 15
13 6 12 -25z m-2729 7 c26 -32 -13 -81 -47 -59 -35 22 -23 74 17 74 10 0 23
-7 30 -15z m2706 -172 c1 -11 4 -25 8 -31 4 -6 -2 -8 -14 -5 -14 4 -20 14 -20
35 0 34 24 35 26 1z m-109 -95 c-3 -8 -6 -5 -6 6 -1 11 2 17 5 13 3 -3 4 -12
1 -19z m118 -58 c3 -5 1 -10 -4 -10 -6 0 -11 -21 -11 -50 0 -27 -4 -50 -10
-50 -5 0 -10 -9 -10 -20 0 -11 -4 -20 -9 -20 -5 0 -5 17 0 41 5 22 7 44 4 49
-3 5 -1 11 5 15 5 3 10 17 10 31 0 24 14 32 25 14z m-3240 -22 c5 4 5 1 1 -6
-6 -10 -11 -10 -22 -1 -8 6 -14 14 -14 16 0 3 6 0 13 -6 8 -6 18 -7 22 -3z
m3162 -35 c1 -32 -1 -34 -8 -15 -7 18 -3 52 5 52 1 0 2 -17 3 -37z m-3167 -35
c0 -23 4 -37 10 -33 6 3 10 2 10 -3 0 -6 -7 -12 -15 -16 -12 -4 -15 3 -15 37
0 24 -6 49 -12 56 -11 10 -10 11 5 6 12 -5 17 -18 17 -47z m72 -25 c8 -10 25
-40 38 -66 12 -26 25 -46 28 -43 2 3 -1 14 -9 23 -11 15 -10 15 9 -1 28 -24
28 -30 -4 -45 -29 -13 -44 -7 -44 17 -1 9 -12 37 -25 62 -21 38 -24 40 -19 15
4 -16 11 -35 16 -42 5 -7 8 -22 6 -35 -3 -17 -8 -8 -21 32 -15 52 -14 100 3
100 4 0 14 -8 22 -17z m3188 -58 c0 -15 -47 -8 -57 8 -4 6 0 8 10 4 18 -7 33
8 17 18 -5 3 -10 11 -10 17 0 6 9 1 20 -12 11 -13 20 -28 20 -35z m-3227 -65
c3 -11 1 -18 -4 -14 -5 3 -9 -1 -9 -8 0 -7 -6 -2 -13 12 -9 16 -10 27 -3 32
14 9 23 2 29 -22z m363 -264 c1 -68 5 -96 17 -108 7 -7 23 -39 36 -70 17 -43
20 -61 12 -75 -10 -17 -10 -17 -11 0 0 9 -4 17 -10 17 -5 0 -10 6 -10 14 0 8
-4 18 -10 21 -7 4 -7 -3 0 -20 13 -33 13 -38 0 -30 -6 4 -10 -13 -10 -45 0
-45 -3 -52 -26 -60 -45 -18 -60 -12 -79 30 -13 30 -16 52 -11 92 7 54 55 266
63 281 8 13 38 -25 39 -47z m1423 -233 c76 -93 88 -204 32 -287 l-31 -44 33
-8 c37 -10 46 -11 68 -13 22 -1 32 -40 13 -48 -23 -9 -125 15 -146 34 -24 22
-23 62 3 89 12 13 32 54 45 93 28 82 22 112 -26 139 -16 9 -30 25 -30 34 0 9
-3 23 -6 32 -11 29 14 17 45 -21z m1280 -180 c-91 -175 -99 -188 -99 -154 0
35 148 311 166 311 11 0 -9 -47 -67 -157z m114 142 c-3 -9 -8 -14 -10 -11 -3
3 -2 9 2 15 9 16 15 13 8 -4z m88 -22 c16 -10 29 -21 29 -26 0 -5 -13 -35 -29
-66 -81 -153 -89 -176 -75 -196 15 -20 18 -62 8 -89 -4 -9 -29 -32 -58 -51
-47 -31 -57 -34 -119 -32 l-67 1 0 62 c0 35 4 65 8 68 10 6 88 -11 119 -26 21
-10 43 -4 43 12 0 4 -11 11 -25 14 -14 4 -25 12 -25 19 0 13 151 327 158 327
2 0 17 -8 33 -17z m-220 -35 c-5 -13 -21 -43 -36 -68 -30 -51 -25 -20 8 48 21
44 43 59 28 20z m-2791 -43 c0 -8 -4 -15 -10 -15 -5 0 -10 7 -10 15 0 8 5 15
10 15 6 0 10 -7 10 -15z m2833 -80 c-3 -9 -8 -14 -10 -11 -3 3 -2 9 2 15 9 16
15 13 8 -4z m-26 -57 c-3 -8 -6 -5 -6 6 -1 11 2 17 5 13 3 -3 4 -12 1 -19z
m-1162 -28 c3 -5 -1 -10 -10 -10 -9 0 -13 5 -10 10 3 6 8 10 10 10 2 0 7 -4
10 -10z m1136 -23 c-10 -9 -11 -8 -5 6 3 10 9 15 12 12 3 -3 0 -11 -7 -18z
m-1133 -299 c-4 -40 -12 -94 -19 -120 -10 -45 -14 -49 -67 -73 -32 -14 -83
-39 -115 -54 l-58 -29 41 -23 c37 -21 39 -24 20 -31 -11 -4 -50 -10 -85 -14
l-65 -7 0 94 c0 52 -3 110 -6 130 -6 35 -4 38 32 54 22 10 71 32 109 50 39 17
86 38 105 46 19 7 51 21 70 31 19 9 38 17 41 18 3 0 2 -33 -3 -72z"/>
<path d="M4369 4335 c0 -33 -4 -86 -8 -119 -8 -66 -26 -86 -77 -86 -28 0 -33
-4 -40 -32 -8 -40 -33 -97 -52 -120 -13 -15 -12 -23 2 -58 18 -47 13 -129 -11
-166 -12 -19 -10 -24 22 -57 19 -20 35 -45 35 -56 0 -11 5 -23 10 -26 6 -3 10
-16 10 -29 0 -13 29 -59 69 -108 38 -48 72 -100 76 -118 11 -48 -13 -130 -52
-178 -26 -32 -36 -54 -37 -85 -1 -23 -19 -80 -40 -127 -21 -47 -40 -96 -43
-110 -3 -14 -19 -39 -36 -57 -30 -32 -30 -34 -18 -75 26 -86 22 -85 79 -14
194 242 304 526 327 846 18 247 -65 589 -195 802 l-20 33 -1 -60z m114 -676
c5 -9 7 -28 3 -42 -6 -27 -7 -27 -101 -27 l-95 0 0 45 0 46 91 -3 c71 -2 94
-7 102 -19z"/>
<path d="M3191 4234 c0 -11 3 -14 6 -6 3 7 2 16 -1 19 -3 4 -6 -2 -5 -13z"/>
<path d="M3155 4229 c-4 -6 -5 -12 -2 -15 2 -3 7 2 10 11 7 17 1 20 -8 4z"/>
<path d="M3375 4230 c-3 -5 -1 -10 4 -10 6 0 11 5 11 10 0 6 -2 10 -4 10 -3 0
-8 -4 -11 -10z"/>
<path d="M3121 4214 c0 -11 3 -14 6 -6 3 7 2 16 -1 19 -3 4 -6 -2 -5 -13z"/>
<path d="M3080 4209 c0 -5 5 -7 10 -4 6 3 10 8 10 11 0 2 -4 4 -10 4 -5 0 -10
-5 -10 -11z"/>
<path d="M3011 4194 c0 -11 3 -14 6 -6 3 7 2 16 -1 19 -3 4 -6 -2 -5 -13z"/>
<path d="M3230 4199 c0 -5 5 -7 10 -4 6 3 10 8 10 11 0 2 -4 4 -10 4 -5 0 -10
-5 -10 -11z"/>
<path d="M2975 4190 c-3 -5 -1 -10 4 -10 6 0 11 5 11 10 0 6 -2 10 -4 10 -3 0
-8 -4 -11 -10z"/>
<path d="M3161 4184 c0 -11 3 -14 6 -6 3 7 2 16 -1 19 -3 4 -6 -2 -5 -13z"/>
<path d="M3091 4174 c0 -11 3 -14 6 -6 3 7 2 16 -1 19 -3 4 -6 -2 -5 -13z"/>
<path d="M2875 4140 c-3 -5 -1 -10 4 -10 6 0 11 5 11 10 0 6 -2 10 -4 10 -3 0
-8 -4 -11 -10z"/>
<path d="M3095 4140 c-3 -5 -1 -10 4 -10 6 0 11 5 11 10 0 6 -2 10 -4 10 -3 0
-8 -4 -11 -10z"/>
<path d="M2801 4124 c0 -11 3 -14 6 -6 3 7 2 16 -1 19 -3 4 -6 -2 -5 -13z"/>
<path d="M2835 4130 c-3 -5 -1 -10 4 -10 6 0 11 5 11 10 0 6 -2 10 -4 10 -3 0
-8 -4 -11 -10z"/>
<path d="M2767 4123 c-4 -3 -7 -11 -7 -17 0 -6 5 -5 12 2 6 6 9 14 7 17 -3 3
-9 2 -12 -2z"/>
<path d="M3100 4099 c0 -5 5 -7 10 -4 6 3 10 8 10 11 0 2 -4 4 -10 4 -5 0 -10
-5 -10 -11z"/>
<path d="M2741 4074 c0 -11 3 -14 6 -6 3 7 2 16 -1 19 -3 4 -6 -2 -5 -13z"/>
<path d="M2770 4079 c0 -5 5 -7 10 -4 6 3 10 8 10 11 0 2 -4 4 -10 4 -5 0 -10
-5 -10 -11z"/>
<path d="M2745 4040 c-3 -5 -1 -10 4 -10 6 0 11 5 11 10 0 6 -2 10 -4 10 -3 0
-8 -4 -11 -10z"/>
<path d="M2705 4030 c-3 -5 -1 -10 4 -10 6 0 11 5 11 10 0 6 -2 10 -4 10 -3 0
-8 -4 -11 -10z"/>
<path d="M3533 4008 c4 -15 -1 -30 -16 -46 -17 -18 -18 -22 -4 -16 22 8 22 -4
0 -29 -17 -19 -17 -20 0 -14 26 10 21 -12 -10 -40 l-28 -25 33 6 c18 3 32 1
32 -4 0 -6 -3 -10 -8 -10 -4 0 -13 -9 -19 -19 -11 -17 -10 -20 10 -18 12 0 25
6 29 12 17 23 4 225 -15 225 -5 0 -7 -10 -4 -22z"/>
<path d="M2785 4010 c-3 -5 -1 -10 4 -10 6 0 11 5 11 10 0 6 -2 10 -4 10 -3 0
-8 -4 -11 -10z"/>
<path d="M2531 3994 c0 -11 3 -14 6 -6 3 7 2 16 -1 19 -3 4 -6 -2 -5 -13z"/>
<path d="M2710 3989 c0 -5 5 -7 10 -4 6 3 10 8 10 11 0 2 -4 4 -10 4 -5 0 -10
-5 -10 -11z"/>
<path d="M2571 3968 c0 -7 4 -22 9 -33 6 -16 8 -14 7 13 0 17 -4 32 -9 32 -4
0 -8 -6 -7 -12z"/>
<path d="M2501 3954 c0 -11 3 -14 6 -6 3 7 2 16 -1 19 -3 4 -6 -2 -5 -13z"/>
<path d="M2535 3960 c-3 -5 -1 -10 4 -10 6 0 11 5 11 10 0 6 -2 10 -4 10 -3 0
-8 -4 -11 -10z"/>
<path d="M2505 3920 c-3 -5 -1 -10 4 -10 6 0 11 5 11 10 0 6 -2 10 -4 10 -3 0
-8 -4 -11 -10z"/>
<path d="M2690 3914 c0 -8 5 -12 10 -9 6 3 10 10 10 16 0 5 -4 9 -10 9 -5 0
-10 -7 -10 -16z"/>
<path d="M2585 3900 c-3 -5 -1 -10 4 -10 6 0 11 5 11 10 0 6 -2 10 -4 10 -3 0
-8 -4 -11 -10z"/>
<path d="M4048 3892 c-10 -2 -18 -8 -18 -13 0 -6 -19 -19 -43 -29 -39 -17 -48
-18 -101 -6 -85 20 -128 7 -184 -56 -66 -72 -115 -138 -108 -145 3 -3 48 27
100 67 l95 72 85 -7 c110 -9 181 7 202 47 24 46 11 79 -28 70z"/>
<path d="M2475 3880 c-3 -5 -1 -10 4 -10 6 0 11 5 11 10 0 6 -2 10 -4 10 -3 0
-8 -4 -11 -10z"/>
<path d="M2660 3877 c0 -5 -7 -7 -15 -4 -16 7 -45 -43 -45 -79 0 -13 -4 -25
-9 -28 -4 -3 -11 -34 -16 -68 -8 -71 -11 -96 -20 -153 -7 -48 10 -125 39 -180
12 -22 27 -57 35 -79 19 -54 42 -73 113 -93 59 -16 63 -20 101 -81 38 -60 77
-92 112 -92 8 0 15 4 15 10 0 5 -3 9 -7 9 -42 -7 -80 26 -119 102 -21 42 -29
48 -91 70 -79 28 -87 39 -140 186 l-34 98 16 95 c37 207 55 250 105 250 26 0
111 -47 124 -69 4 -6 22 -19 39 -28 l32 -16 -40 45 c-22 25 -57 56 -77 69 -21
13 -38 29 -38 34 0 13 -80 15 -80 2z"/>
<path d="M2590 3859 c0 -5 5 -7 10 -4 6 3 10 8 10 11 0 2 -4 4 -10 4 -5 0 -10
-5 -10 -11z"/>
<path d="M2480 3839 c0 -5 5 -7 10 -4 6 3 10 8 10 11 0 2 -4 4 -10 4 -5 0 -10
-5 -10 -11z"/>
<path d="M2672 3714 c-9 -19 -24 -145 -23 -194 1 -14 10 -60 21 -102 11 -43
20 -80 20 -82 0 -9 61 -38 67 -32 3 2 -9 12 -26 21 -17 8 -31 17 -31 19 0 2
-7 39 -15 83 -14 74 -14 251 1 274 8 13 31 11 65 -6 25 -13 28 -20 23 -43 -4
-15 -13 -39 -21 -54 -7 -16 -9 -28 -4 -28 6 0 18 23 28 50 18 51 39 64 62 36
9 -11 6 -24 -12 -57 -35 -64 -45 -104 -12 -51 15 24 32 41 38 39 16 -5 29 -75
22 -114 -3 -17 -1 -34 5 -38 5 -3 11 2 11 12 6 78 4 115 -10 163 -15 52 -19
57 -72 83 -75 38 -124 45 -137 21z"/>
<path d="M3915 3710 c-38 -9 -122 -47 -130 -59 -3 -6 22 1 55 15 70 28 96 30
104 7 10 -24 -1 -30 -83 -47 -41 -9 -76 -18 -79 -21 -11 -11 31 -17 51 -6 29
14 92 19 90 6 0 -5 6 -16 14 -24 13 -11 14 -11 13 5 -5 41 1 55 28 66 l27 11
-25 6 c-14 4 -25 14 -25 23 0 23 -6 26 -40 18z"/>
<path d="M2291 3694 c0 -11 3 -14 6 -6 3 7 2 16 -1 19 -3 4 -6 -2 -5 -13z"/>
<path d="M2295 3660 c-3 -5 -1 -10 4 -10 6 0 11 5 11 10 0 6 -2 10 -4 10 -3 0
-8 -4 -11 -10z"/>
<path d="M2257 3653 c-2 -5 -1 -19 4 -33 7 -23 7 -23 8 8 1 31 -3 40 -12 25z"/>
<path d="M2930 3648 c0 -24 24 -94 39 -112 10 -12 16 -36 15 -70 -1 -40 4 -54
18 -65 11 -7 28 -27 39 -45 l19 -31 0 37 c0 46 -19 140 -31 153 -5 5 -9 16 -9
25 0 8 -10 20 -22 25 -15 6 -26 24 -32 47 -9 34 -36 62 -36 36z"/>
<path d="M3858 3583 c12 -2 30 -2 40 0 9 3 -1 5 -23 4 -22 0 -30 -2 -17 -4z"/>
<path d="M2746 3410 c8 -45 8 -45 43 -29 23 10 31 21 31 39 0 23 -4 25 -40 25
l-40 0 6 -35z"/>
<path d="M2916 3434 c-11 -29 -6 -44 29 -81 19 -20 35 -41 35 -45 0 -5 -11
-14 -25 -20 -21 -10 -32 -8 -66 11 -51 29 -61 21 -17 -12 49 -37 71 -40 101
-16 37 28 34 50 -13 92 -34 30 -40 40 -34 62 7 27 0 34 -10 9z"/>
<path d="M4170 3427 c0 -10 40 -118 53 -143 l14 -28 18 37 c17 36 17 37 -10
68 -26 32 -75 75 -75 66z"/>
<path d="M3026 3247 c-21 -27 -36 -36 -71 -41 -26 -4 -53 -3 -65 4 -19 10 -19
9 -8 -17 17 -40 65 -106 71 -96 2 4 7 20 11 36 4 18 18 33 44 45 31 14 38 23
43 57 4 22 6 41 4 43 -2 2 -15 -12 -29 -31z"/>
<path d="M4083 3203 c-25 -9 -13 -23 15 -17 37 9 52 24 22 23 -14 0 -31 -3
-37 -6z"/>
<path d="M2992 3060 c-18 -29 -15 -38 4 -12 9 13 14 25 12 27 -2 2 -9 -5 -16
-15z"/>
<path d="M595 5394 c-108 -26 -195 -97 -245 -199 -21 -42 -25 -64 -25 -140 0
-101 15 -138 86 -218 21 -25 39 -51 39 -59 0 -7 -19 -38 -41 -68 -63 -83 -89
-149 -89 -226 0 -70 15 -90 48 -62 42 36 235 150 317 188 50 23 98 46 109 52
88 47 484 148 579 148 64 0 67 15 13 69 -59 60 -137 95 -251 114 l-80 13 -7
78 c-4 45 -16 96 -28 121 -27 55 -107 130 -168 157 -38 17 -173 50 -192 47 -3
0 -32 -7 -65 -15z m-15 -94 c-12 -16 -20 -30 -18 -30 2 -1 26 -2 55 -4 60 -4
109 -31 149 -83 40 -53 41 -132 2 -191 -23 -34 -46 -50 -140 -96 -109 -53
-114 -54 -138 -39 -34 22 -89 81 -107 117 -24 46 -29 139 -10 188 30 77 139
166 205 168 l23 0 -21 -30z m597 -354 c59 -13 153 -58 153 -75 0 -6 -68 -20
-174 -34 -14 -1 -19 5 -22 27 -5 43 -34 67 -90 74 -37 4 -44 7 -29 13 30 12
93 10 162 -5z m-652 -213 c-30 -46 -32 -72 -4 -107 l21 -26 -32 -18 c-18 -9
-51 -32 -75 -49 -24 -18 -46 -33 -49 -33 -15 0 -4 70 18 115 20 42 122 155
141 155 3 0 -6 -17 -20 -37z"/>
<path d="M5495 5195 c-82 -14 -145 -45 -204 -100 -66 -62 -94 -121 -101 -214
l-5 -75 -80 -13 c-113 -19 -181 -49 -242 -106 -29 -28 -53 -54 -53 -58 0 -4
15 -10 33 -13 17 -3 77 -13 132 -21 132 -21 402 -97 472 -134 10 -5 59 -28
108 -51 82 -38 275 -152 317 -188 33 -28 48 -8 48 62 0 91 -27 150 -132 283
-6 7 6 28 36 62 71 80 91 130 91 231 0 102 -23 157 -97 236 -81 86 -195 120
-323 99z m229 -85 c56 -24 111 -79 138 -140 15 -35 19 -59 15 -105 -5 -71 -23
-111 -72 -160 -72 -71 -67 -71 -191 -10 -125 61 -163 101 -171 177 -10 93 78
188 179 194 29 2 54 3 56 4 2 0 -4 10 -12 22 -31 44 -14 49 58 18z m-499 -359
c15 -6 8 -9 -29 -13 -56 -7 -90 -34 -92 -75 -1 -21 -6 -27 -20 -26 -103 14
-174 28 -174 34 0 16 93 62 149 75 64 14 137 16 166 5z m542 -243 c57 -58 92
-125 93 -175 0 -18 -3 -33 -6 -33 -3 0 -25 15 -49 33 -24 17 -58 40 -75 50
l-33 18 22 22 c27 29 27 60 0 103 -30 49 -11 42 48 -18z"/>
</g>
</svg>
